<svg xmlns="http://www.w3.org/2000/svg" xmlns:xlink="http://www.w3.org/1999/xlink" width="500" zoomAndPan="magnify" viewBox="0 0 375 374.999991" height="500" preserveAspectRatio="xMidYMid meet" version="1.0"><defs><g/></defs><rect x="-37.5" width="450" fill="#ffffff" y="-37.499999" height="449.999989" fill-opacity="1"/><rect x="-37.5" width="450" fill="#ffffff" y="-37.499999" height="449.999989" fill-opacity="1"/><rect x="-37.5" width="450" fill="#000000" y="-37.499999" height="449.999989" fill-opacity="1"/><g fill="#ffffff" fill-opacity="1"><g transform="translate(55.035745, 214.601703)"><g><path d="M 11.632812 0 L 38.066406 0 C 80.625 0 100.449219 -24.320312 100.449219 -61.0625 L 100.449219 -185.042969 L 77.1875 -185.042969 L 77.1875 -62.386719 C 77.1875 -37.800781 67.671875 -22.203125 38.066406 -22.203125 L 11.632812 -22.203125 Z M 11.632812 0 "/></g></g></g><g fill="#ffffff" fill-opacity="1"><g transform="translate(123.248317, 317.572624)"><g><path d="M 108.910156 3.4375 C 153.847656 3.4375 190.328125 -23.789062 201.429688 -65.027344 L 176.847656 -65.027344 C 167.328125 -37.273438 141.160156 -19.824219 109.703125 -19.824219 C 68.464844 -19.824219 39.121094 -49.695312 39.121094 -92.519531 C 39.121094 -135.34375 68.464844 -165.214844 109.703125 -165.214844 C 140.367188 -165.214844 165.480469 -148.824219 174.996094 -122.128906 L 199.84375 -122.128906 C 187.683594 -162.835938 152.527344 -188.476562 108.910156 -188.476562 C 54.453125 -188.476562 15.332031 -148.296875 15.332031 -92.519531 C 15.332031 -36.742188 54.453125 3.4375 108.910156 3.4375 Z M 108.910156 3.4375 "/></g></g></g></svg>